<svg width="32" height="32" viewBox="0 0 32 32" fill="none" xmlns="http://www.w3.org/2000/svg">
<path d="M20.125 2.43742C20.125 2.1273 20.3774 1.87494 20.6875 1.87494H23.9375C24.2477 1.87494 24.5 2.1273 24.5 2.43742V5.78824H26.375V2.43742C26.375 1.0934 25.2816 0 23.9375 0H20.6875C19.3434 0 18.25 1.0934 18.25 2.43742V5.78824H20.125V2.43742Z" fill="#0C0E14"/>
<path d="M11.3961 30.1251C10.9865 29.4886 10.75 28.7351 10.75 27.9376V13.8828H2.1875C0.981313 13.8828 0 14.8641 0 16.0702V27.9376C0 29.0377 0.816313 29.9503 1.875 30.1024V31.0623C1.875 31.58 2.29475 31.9998 2.8125 31.9998C3.33025 31.9998 3.75 31.58 3.75 31.0623V30.125H11.3961V30.1251ZM3.75 17.3202C3.75 16.8025 4.16975 16.3827 4.6875 16.3827C5.20525 16.3827 5.625 16.8025 5.625 17.3202V26.6877C5.625 27.2054 5.20525 27.6252 4.6875 27.6252C4.16975 27.6252 3.75 27.2054 3.75 26.6877V17.3202Z" fill="#0C0E14"/>
<path d="M8.75 10.5312C8.75 10.2211 9.00237 9.96869 9.3125 9.96869H10.75V9.85088C10.75 9.22184 10.8937 8.62579 11.1501 8.09375H9.3125C7.96844 8.09375 6.875 9.18715 6.875 10.5312V12.0071H8.75V10.5312Z" fill="#0C0E14"/>
<path d="M29.8125 7.66406H14.8125C13.6063 7.66406 12.625 8.64534 12.625 9.85149V27.9374C12.625 29.0375 13.4413 29.9501 14.5 30.1022V31.0621C14.5 31.5798 14.9197 31.9995 15.4375 31.9995C15.9553 31.9995 16.375 31.5798 16.375 31.0621V30.1248H28.25V31.0621C28.25 31.5798 28.6698 31.9995 29.1875 31.9995C29.7052 31.9995 30.125 31.5798 30.125 31.0621V30.1022C31.1836 29.9501 32 29.0375 32 27.9374V9.85149C32 8.64528 31.0187 7.66406 29.8125 7.66406ZM18.25 26.6875C18.25 27.2052 17.8302 27.6249 17.3125 27.6249C16.7948 27.6249 16.375 27.2052 16.375 26.6875V11.1014C16.375 10.5837 16.7948 10.164 17.3125 10.164C17.8302 10.164 18.25 10.5837 18.25 11.1014V26.6875ZM27.3125 27.6249C26.7948 27.6249 26.375 27.2052 26.375 26.6875V11.1014C26.375 10.5837 26.7948 10.164 27.3125 10.164C27.8302 10.164 28.25 10.5837 28.25 11.1014V26.6875C28.25 27.2052 27.8302 27.6249 27.3125 27.6249Z" fill="#0C0E14"/>
</svg>
